<?xml version="1.0" standalone="no"?><!DOCTYPE svg PUBLIC "-//W3C//DTD SVG 1.1//EN" "http://www.w3.org/Graphics/SVG/1.1/DTD/svg11.dtd"><svg t="1611817018577" class="icon" viewBox="0 0 1024 1024" version="1.1" xmlns="http://www.w3.org/2000/svg" p-id="17150" xmlns:xlink="http://www.w3.org/1999/xlink" width="200" height="200"><defs><style type="text/css"></style></defs><path d="M927.6 664.3v145.9l52 104.6c2 4.6 3.1 9.7 3.1 13.8 0 4.6-1 9.7-4.6 13.3-2.6 4.6-6.1 7.7-10.2 9.7-3.6 2.6-8.7 3.6-13.8 3.6H839.8c-5.1 18.4-15.8 34.2-30.6 45.9-15.8 13.3-36.2 20.9-58.7 20.9s-42.9-7.7-58.7-20.9c-14.8-12.2-25.5-28.1-30.6-45.9H546.4c-5.1 0-9.7-1-13.8-3.6-3.6-2.6-7.7-5.6-10.2-9.7-2.6-4.6-3.6-8.7-4.6-13.3-0.5-4.6 0.5-9.7 3.1-13.8l52-104.6V664.3c0-49 19.9-92.9 51.5-125 21.4-20.9 48.5-36.7 78.1-45.4 3.1-19.9 23-35.7 46.4-35.7 24 0 43.9 15.3 46.4 35.7 30.1 8.2 56.6 24 78.1 45.4 34.3 32.1 53.7 76 54.2 125z m-199.5 298c6.1 4.6 14.8 7.7 23.5 7.7s16.3-2.6 23-7.7c3.1-2 5.6-4.6 7.7-7.1h-61.7c1.4 2.5 3.9 5.1 7.5 7.1zM625.5 816.4l-43.4 86.7h337.3L875 813.8v-150c0-34.2-13.8-65.8-36.2-87.8-22.5-21.9-53.6-36.2-87.8-36.2s-65.8 13.8-87.8 36.2c-22.5 22.5-36.2 53.6-36.2 87.8v150l-1.5 2.6z m31.7-488.3H235.7c-9.7 0-18.9-3.6-25.5-10.2-6.1-6.1-10.7-15.3-10.7-25.5 0-9.7 3.6-18.9 10.7-25.5 6.1-6.1 15.8-10.2 25.5-10.2h421.5c9.7 0 18.9 3.6 25.5 10.2 6.1 6.1 10.7 15.3 10.7 25.5 0 9.7-3.6 18.9-10.7 25.5-7.2 6.6-15.8 10.2-25.5 10.2zM446.4 533.2H235.7c-10.2 0-18.9-4.6-25.5-12.2-6.1-7.1-10.7-17.3-10.7-26.5s3.6-19.9 10.7-26.5c6.1-7.1 15.3-12.2 25.5-12.2h210.7c10.2 0 18.9 4.6 25.5 12.2 6.1 7.1 10.7 17.3 10.7 26.5s-3.6 19.9-10.7 26.5c-6.1 7.6-15.8 12.2-25.5 12.2z m0 205.1H235.7c-10.2 0-18.9-4.6-25.5-12.2-6.1-7.1-10.7-17.3-10.7-26.5s3.6-19.9 10.7-26.5c6.1-7.1 15.3-12.2 25.5-12.2h210.7c10.2 0 18.9 4.6 25.5 12.2 6.1 7.1 10.7 17.3 10.7 26.5s-3.6 19.9-10.7 26.5c-6.1 7.6-15.8 12.2-25.5 12.2z m43.4 201.5v15.3c0 14.8-12.2 26.5-26.5 26.5H176c-36.7 0-71.4-15.3-95.4-39.3-24-24-39.3-58.7-39.3-95.4V137.2c0-37.8 15.3-71.4 39.3-95.4S138.7 2.5 176 2.5h595.5c8.7 0 17.9 3.6 24 10.2 6.1 6.1 10.2 14.8 10.2 24s-3.6 17.9-10.2 24c-6.1 6.1-14.8 10.2-24 10.2H176c-18.4 0-35.2 7.7-46.9 19.9-12.2 12.2-19.9 28.6-19.9 46.9V847c0 18.4 7.7 35.2 19.9 46.9 12.2 11.7 28.6 19.9 46.9 19.9h287.3c14.3-0.5 26.5 11.3 26.5 26z m334.7-512.2V137.2c0-18.4-7.7-35.2-19.9-46.9-12.2-12.2-28.6-19.9-46.9-19.9h-124c-9.7 0-17.9-3.6-24-10.2-6.1-6.1-10.2-14.8-10.2-24s3.6-17.9 10.2-24c6.1-6.1 14.8-10.2 24-10.2h124c37.8 0 71.4 15.3 95.4 39.3s39.3 58.7 39.3 95.4v290.8c0 14.8-12.2 26.5-26.5 26.5h-15.3c-13.8 0.1-26.1-12.2-26.1-26.4z" p-id="17151"></path></svg>