<?xml version="1.0" standalone="no"?><!DOCTYPE svg PUBLIC "-//W3C//DTD SVG 1.1//EN" "http://www.w3.org/Graphics/SVG/1.1/DTD/svg11.dtd"><svg t="1611816576456" class="icon" viewBox="0 0 1024 1024" version="1.1" xmlns="http://www.w3.org/2000/svg" p-id="14897" xmlns:xlink="http://www.w3.org/1999/xlink" width="200" height="200"><defs><style type="text/css"></style></defs><path d="M63.998933 960.001067h928.0016a31.9824 31.9824 0 1 1 0 63.998933H32.016533A32.016533 32.016533 0 0 1 0 992.0176V31.999467a31.9824 31.9824 0 1 1 63.998933 0v928.0016zM224.013333 256.0128h127.997867c17.646639 0 31.9824 14.335761 31.9824 31.9824v544.008H191.9968V287.9952c0-17.646639 14.335761-31.9824 32.016533-31.9824z m255.995734-127.997867h127.997866c17.646639 0 31.9824 14.335761 31.982401 31.9824v672.005867h-191.996801V159.997333c0-17.646639 14.335761-31.9824 32.016534-31.9824z m255.995733 319.994667h127.997867c17.646639 0 31.9824 14.335761 31.9824 31.9824v352.0112h-191.9968V479.992c0-17.646639 14.335761-31.9824 32.016533-31.9824z" p-id="14898"></path></svg>