<?xml version="1.0" standalone="no"?><!DOCTYPE svg PUBLIC "-//W3C//DTD SVG 1.1//EN" "http://www.w3.org/Graphics/SVG/1.1/DTD/svg11.dtd"><svg t="1611817803129" class="icon" viewBox="0 0 1024 1024" version="1.1" xmlns="http://www.w3.org/2000/svg" p-id="30885" xmlns:xlink="http://www.w3.org/1999/xlink" width="200" height="200"><defs><style type="text/css"></style></defs><path d="M837.818182 46.545455a139.636364 139.636364 0 0 1 139.636363 139.636363v651.636364a139.636364 139.636364 0 0 1-139.636363 139.636363H186.181818a139.636364 139.636364 0 0 1-139.636363-139.636363V186.181818a139.636364 139.636364 0 0 1 139.636363-139.636363z m0 93.090909H186.181818a46.545455 46.545455 0 0 0-46.545454 46.545454v651.636364a46.545455 46.545455 0 0 0 46.545454 46.545454h651.636364a46.545455 46.545455 0 0 0 46.545454-46.545454V186.181818a46.545455 46.545455 0 0 0-46.545454-46.545454zM512 209.454545a186.181818 186.181818 0 0 1 130.792727 318.696728c6.027636 1.442909 12.055273 3.025455 18.082909 4.724363a146.850909 146.850909 0 0 1 107.008 135.400728l0.116364 5.957818V721.454545a69.818182 69.818182 0 0 1-65.722182 69.701819L698.181818 791.272727H325.818182a69.818182 69.818182 0 0 1-69.701818-65.722182L256 721.454545v-47.220363a146.850909 146.850909 0 0 1 107.124364-141.358546c6.027636-1.698909 12.055273-3.281455 18.082909-4.770909A186.181818 186.181818 0 0 1 512 209.454545z m0 395.636364c-41.122909 0-82.315636 5.794909-123.694545 17.408a53.76 53.76 0 0 0-39.07491 47.755636l-0.139636 3.979637V698.181818h325.818182v-23.947636c0-21.410909-12.660364-40.494545-31.767273-49.035637l-3.653818-1.489454-3.793455-1.210182A455.377455 455.377455 0 0 0 512 605.090909z m0-302.545454a93.090909 93.090909 0 1 0 0 186.181818 93.090909 93.090909 0 0 0 0-186.181818z" p-id="30886"></path></svg>