<?xml version="1.0" standalone="no"?><!DOCTYPE svg PUBLIC "-//W3C//DTD SVG 1.1//EN" "http://www.w3.org/Graphics/SVG/1.1/DTD/svg11.dtd"><svg t="1611817698997" class="icon" viewBox="0 0 1024 1024" version="1.1" xmlns="http://www.w3.org/2000/svg" p-id="28563" xmlns:xlink="http://www.w3.org/1999/xlink" width="200" height="200"><defs><style type="text/css"></style></defs><path d="M888.393143 1024h-115.760762a107.27619 107.27619 0 0 1-0.341333-0.585143c-27.111619-50.029714-40.862476-99.523048-40.862477-148.772571 0-86.308571 32.085333-130.535619 113.322667-195.925334l2.535619-1.950476c58.514286-47.152762 74.410667-68.85181 74.410667-113.615238 0-40.96-13.653333-59.977143-63.439238-98.108952l-12.629334-9.654857C766.537143 394.630095 731.428571 342.113524 731.428571 243.809524c0-82.895238 37.059048-163.84 109.909334-243.614476L841.48419 0h141.653334a42.130286 42.130286 0 0 1-0.146286 0.146286C879.37219 86.25981 828.952381 168.033524 828.952381 243.809524c0 62.268952 18.529524 90.112 76.068571 134.241524l12.483048 9.557333c71.582476 54.759619 101.717333 96.694857 101.717333 175.542857 0 82.895238-31.158857 125.464381-110.835809 189.586286l-2.486857 1.950476c-60.220952 48.469333-76.946286 71.582476-76.946286 119.954286 0 45.592381 19.407238 95.329524 59.001905 148.723809l0.438857 0.633905zM156.964571 1024H41.20381a107.27619 107.27619 0 0 1-0.341334-0.585143C13.750857 973.385143 0 923.89181 0 874.642286c0-86.308571 32.085333-130.535619 113.322667-195.925334l2.535619-1.950476c58.514286-47.152762 74.410667-68.85181 74.410666-113.615238 0-40.96-13.653333-59.977143-63.439238-98.108952l-12.629333-9.654857C35.108571 394.630095 0 342.113524 0 243.809524 0 160.914286 37.059048 79.969524 109.909333 0.195048L110.055619 0h141.653333a41.886476 41.886476 0 0 1-0.146285 0.146286C147.943619 86.25981 97.52381 168.033524 97.52381 243.809524c0 62.268952 18.529524 90.112 76.068571 134.241524l12.483048 9.557333c71.582476 54.759619 101.717333 96.694857 101.717333 175.542857 0 82.895238-31.158857 125.464381-110.83581 189.586286l-2.486857 1.950476C114.249143 803.206095 97.52381 826.319238 97.52381 874.691048c0 45.592381 19.407238 95.329524 59.001904 148.723809l0.438857 0.633905z" p-id="28564"></path><path d="M649.99619 0L314.709333 335.384381 176.713143 197.485714 374.198857 0h275.846095z m27.648 1024H461.385143l108.153905-108.105143L677.64419 1024z m36.230096-586.898286l137.947428 137.898667-275.846095 275.846095-137.947429-137.898666 275.846096-275.846096z m-389.315048 266.825143l137.947429 137.898667L290.084571 1014.247619 152.185905 876.251429l172.373333-172.373334z m230.156191-492.30019l137.947428 137.898666-241.371428 241.371429L313.344 452.998095l241.371429-241.371428z" p-id="28565"></path></svg>