<?xml version="1.0" standalone="no"?><!DOCTYPE svg PUBLIC "-//W3C//DTD SVG 1.1//EN" "http://www.w3.org/Graphics/SVG/1.1/DTD/svg11.dtd"><svg t="1541582420630" class="icon" style="" viewBox="0 0 1031 1024" version="1.1" xmlns="http://www.w3.org/2000/svg" p-id="3681" xmlns:xlink="http://www.w3.org/1999/xlink" width="24.1640625" height="24"><defs><style type="text/css"></style></defs>
  <path d="M1000.96 567.808l-474.112-273.92c-9.216-5.12-19.968-5.12-29.184 0L23.04 567.808c-19.456 11.264-19.456 39.424 0 50.688L497.152 891.904c9.216 5.12 19.968 5.12 29.184 0l474.112-273.92c19.968-11.264 19.968-38.912 0.512-50.176zM973.824 342.016l-438.272-253.44c-14.336-8.192-32.768-8.192-47.104 0L50.176 342.016c-31.232 17.92-31.232 63.488 0 81.408 14.336 8.192 32.768 8.192 47.104 0l391.168-225.792c14.336-8.192 32.768-8.192 47.104 0L926.72 423.424c14.336 8.192 32.768 8.192 47.104 0 31.232-17.92 31.232-63.488 0-81.408zM973.824 131.584l-438.272-253.44c-14.336-8.192-32.768-8.192-47.104 0L50.176 131.584c-31.232 17.92-31.232 63.488 0 81.408 14.336 8.192 32.768 8.192 47.104 0L488.448-12.8c14.336-8.192 32.768-8.192 47.104 0L926.72 212.992c14.336 8.192 32.768 8.192 47.104 0 31.232-17.92 31.232-63.488 0-81.408z" p-id="3682"></path>
</svg>
